# xmcd
#
# Track frame offsets:
#  182
#  19240
#  36967
#  57932
#  77047
#  97390
#  115995
#  130872
#  148725
#
# Disc length: 2198 seconds
#
# Revision: 0
# Processed by: cddbd v1.4PL0 Copyright (c) Steve Scherf et al.
# Submitted via: AltoMP3_Maker 3.0
#
DISCID=81089409
DTITLE=Joyce Bond - You Touch My Heart
DYEAR=1900
DGENRE=
TTITLE0=1)	You Touch My Heart 
TTITLE1=2)	My Mothers Eyes 
TTITLE2=3)	I Wanna Be True 
TTITLE3=4)	Lovely Paradise 
TTITLE4=5)	Do The Teasy 
TTITLE5=6)	Do Right Man Do Right Wbman 
TTITLE6=7)	Dreaming Of A Little Island 
TTITLE7=Roving Eyes 
TTITLE8=How Sweet tt Is (To Be Loved By You)
EXTD=
EXTT0=
EXTT1=
EXTT2=
EXTT3=
EXTT4=
EXTT5=
EXTT6=
EXTT7=
EXTT8=
PLAYORDER=
